<svg xmlns="http://www.w3.org/2000/svg" width="100" height="100" viewBox="0 0 26.458 26.458"><path d="M50 100c-3.167 0-5.673-5.247-8.78-5.865-3.106-.618-7.428 3.271-10.354 2.059-2.926-1.212-3.233-7.018-5.867-8.778-2.633-1.76-8.115.179-10.355-2.06-2.24-2.24-.3-7.722-2.06-10.356-1.76-2.633-7.566-2.94-8.778-5.866-1.212-2.926 2.676-7.249 2.058-10.355C5.246 55.672 0 53.167 0 49.999c0-3.167 5.246-5.672 5.864-8.778.618-3.107-3.27-7.43-2.058-10.355 1.212-2.927 7.018-3.233 8.778-5.867 1.76-2.633-.18-8.115 2.06-10.355s7.722-.301 10.355-2.06c2.634-1.76 2.94-7.567 5.867-8.779 2.926-1.212 7.249 2.677 10.355 2.06C44.327 5.245 46.833-.002 50-.002s5.673 5.247 8.78 5.865c3.106.618 7.428-3.27 10.354-2.059 2.926 1.213 3.233 7.019 5.867 8.778 2.633 1.76 8.115-.179 10.355 2.061 2.24 2.24.3 7.721 2.06 10.355 1.76 2.634 7.566 2.94 8.778 5.867 1.212 2.926-2.676 7.248-2.058 10.355C94.754 44.327 100 46.832 100 50c0 3.167-5.246 5.672-5.864 8.779-.618 3.106 3.27 7.429 2.058 10.355-1.212 2.926-7.018 3.233-8.778 5.866-1.76 2.634.18 8.115-2.06 10.355s-7.721.301-10.355 2.061c-2.634 1.76-2.94 7.566-5.867 8.778-2.926 1.212-7.248-2.677-10.355-2.059C55.673 94.753 53.167 100 50 100z" style="paint-order:markers stroke fill" transform="scale(.26458)"/></svg>