<?xml version="1.0" encoding="UTF-8"?>
<!-- Created with Inkscape (http://www.inkscape.org/) -->
<svg width="100" height="100" version="1.1" viewBox="0 0 26.458 26.458" xmlns="http://www.w3.org/2000/svg">
 <path transform="scale(.26458)" d="m50 100c-3.1673 0-5.6726-5.2467-8.7791-5.8647-3.1065-0.61791-7.4289 3.2707-10.355 2.0586-2.9262-1.2121-3.233-7.0182-5.8665-8.7778-2.6335-1.7597-8.115 0.17885-10.355-2.0608-2.2396-2.2396-0.30112-7.7211-2.0608-10.355-1.7597-2.6335-7.5658-2.9403-8.7778-5.8665-1.2121-2.9262 2.6766-7.2486 2.0586-10.355-0.61791-3.1065-5.8647-5.6117-5.8647-8.7791 1.0257e-7 -3.1673 5.2467-5.6726 5.8647-8.7791 0.61791-3.1065-3.2707-7.4289-2.0586-10.355 1.2121-2.9262 7.0182-3.233 8.7778-5.8665 1.7597-2.6335-0.17885-8.115 2.0608-10.355 2.2396-2.2396 7.7211-0.30112 10.355-2.0608 2.6335-1.7597 2.9403-7.5658 5.8665-8.7778 2.9262-1.2121 7.2486 2.6766 10.355 2.0586 3.1065-0.61791 5.6117-5.8647 8.7791-5.8647 3.1673 1.0257e-7 5.6726 5.2467 8.7791 5.8647 3.1065 0.61791 7.4289-3.2707 10.355-2.0586 2.9262 1.2121 3.233 7.0182 5.8665 8.7778 2.6335 1.7597 8.115-0.17885 10.355 2.0608 2.2396 2.2396 0.30112 7.7211 2.0608 10.355 1.7597 2.6335 7.5658 2.9403 8.7778 5.8665 1.2121 2.9262-2.6766 7.2486-2.0586 10.355 0.61792 3.1065 5.8647 5.6117 5.8647 8.7791 0 3.1673-5.2467 5.6726-5.8647 8.7791-0.61791 3.1065 3.2707 7.4289 2.0586 10.355-1.2121 2.9262-7.0182 3.233-8.7778 5.8665-1.7597 2.6335 0.17885 8.115-2.0608 10.355-2.2396 2.2396-7.7211 0.30112-10.355 2.0608-2.6335 1.7597-2.9403 7.5658-5.8665 8.7778-2.9262 1.2121-7.2486-2.6766-10.355-2.0586-3.1065 0.61792-5.6117 5.8647-8.7791 5.8647z" style="paint-order:markers stroke fill"/>
</svg>
