<?xml version="1.0" encoding="UTF-8"?>
<!-- Created with Inkscape (http://www.inkscape.org/) -->
<svg width="100" height="100" version="1.1" viewBox="0 0 26.458 26.458" xmlns="http://www.w3.org/2000/svg">
 <path d="m13.229 0c0 13.229-1.3229 11.906-1.3229 11.906s1.3229 1.3229-11.906-5.2916c13.229 6.6145 10.583 6.6145 10.583 6.6145s2.6458 0-10.583 6.6145c13.229-6.6145 11.906-5.2916 11.906-5.2916s1.3229-1.3229 1.3229 11.906c0-13.229 1.3229-11.906 1.3229-11.906s-1.3229-1.3229 11.906 5.2916c-13.229-6.6145-10.583-6.6145-10.583-6.6145s-2.6458 0 10.583-6.6145c-13.229 6.6145-11.906 5.2916-11.906 5.2916s-1.3229 1.3229-1.3229-11.906z" style="paint-order:markers stroke fill"/>
</svg>
