<svg xmlns="http://www.w3.org/2000/svg" width="100" height="100" viewBox="0 0 26.458 26.458"><path d="M13.229 0c0 13.229-1.323 11.906-1.323 11.906S13.23 13.229 0 6.614c13.23 6.615 10.583 6.615 10.583 6.615s2.646 0-10.583 6.614c13.23-6.614 11.906-5.291 11.906-5.291s1.323-1.323 1.323 11.906c0-13.23 1.323-11.906 1.323-11.906s-1.323-1.323 11.906 5.291c-13.23-6.614-10.583-6.614-10.583-6.614s-2.646 0 10.583-6.615c-13.23 6.615-11.906 5.292-11.906 5.292S13.229 13.229 13.229 0z" style="paint-order:markers stroke fill"/></svg>